# xmcd
#
# Track frame offsets:
#	150
#	14315
#	28889
#	44316
#	58111
#	69814
#	86120
#	98769
#	114827
#	128641
#	142932
#	156824
#	169094
#	182212
#	194317
#	207307
#	221883
#	238680
#	252595
#	267459
#
# Disc length: 3768 seconds
#
# Revision: 1
# Processed by: cddbd v1.5.2PL0 Copyright (c) Steve Scherf et al.
# Submitted via: EZCDAudioConverter 4.0.5.1
#
DISCID=220eb614
DTITLE=MULTI MUSIC GROUP - HOTT TRAKKS # 576 CAN
DYEAR=2019
DGENRE=SOUNDTRACK
TTITLE0=Loud Luxury ft. Bryce Vine\n - I'm Not Alright\n
TTITLE1=The HIM ft. Maria Hazell\n - Found Me\n
TTITLE2=Phantoms ft. Anna Clendening\n - Say It\n
TTITLE3=BODE ft. Tanya Lacey\n - Missing\n
TTITLE4=Morgan Page and Vivid ft. Alle and Damon Sharpe\n - Fire and Gold\n
TTITLE5=Shaun Frank ft. Lexy Panterra\n - Where Do You Go\n
TTITLE6=One Bit\n - Back To You\n
TTITLE7=Ali Gatie\n - It's You\n
TTITLE8=NCT 127\n - Highway To Heaven\n
TTITLE9=Monsta X ft. French Montana\n - Who Do You Love\n
TTITLE10=Stephen Puth\n - Look Away\n
TTITLE11=Stanaj\n - Love Me\n
TTITLE12=Asher Angel ft. Wiz Khalifa\n - One Thought Away\n
TTITLE13=Y2K and bbno$\n - Lalala\n
TTITLE14=French Montana ft. City Girls\nFrench Montana ft. City Girls\nFrench 
TTITLE14=Montana ft. City Girls\n - Wiggle It\n
TTITLE15=Megan Thee Stallion\n - Cash Sh*t [EXTRA SUPER CLEAN]\n
TTITLE16=J Balvin and Bad Bunny\n - QUE PRETENDES\n
TTITLE17=DJ Snake and J. Balvin ft. Tyga\n - Loco Contigo\n
TTITLE18=Goo Goo Dolls\n - Miracle Pill\n
TTITLE19=Rob Thomas - Can't Help Me Now\n
EXTD=
EXTT0=
EXTT1=
EXTT2=
EXTT3=
EXTT4=
EXTT5=
EXTT6=
EXTT7=
EXTT8=
EXTT9=
EXTT10=
EXTT11=
EXTT12=
EXTT13=
EXTT14=
EXTT15=
EXTT16=
EXTT17=
EXTT18=
EXTT19=
PLAYORDER=
